<svg width="144" height="99" viewBox="0 0 144 99" fill="none" xmlns="http://www.w3.org/2000/svg">
<path id="BP" d="M23.3125 25.5C23.3125 24.2917 23.2083 23.4167 23 22.875C22.8333 22.3333 22.75 21.8333 22.75 21.375C22.75 20.75 23.0833 20.2292 23.75 19.8125C24.4167 19.3958 25.2083 19.1875 26.125 19.1875C28.25 19.1875 29.9583 19.75 31.25 20.875C32.5833 21.9583 33.25 23.2917 33.25 24.875V72.3125C33.25 75.3958 33.5 78.0208 34 80.1875C34.5 82.3542 35.25 84.125 36.25 85.5C37.25 86.875 38.4792 87.8958 39.9375 88.5625C41.3958 89.1875 43.0625 89.5 44.9375 89.5C46.7292 89.5 48.375 89.1667 49.875 88.5C51.4167 87.8333 52.75 86.9167 53.875 85.75C55 84.5833 55.875 83.2083 56.5 81.625C57.125 80.0417 57.4375 78.3125 57.4375 76.4375C57.4375 73.5625 56.9375 71.1667 55.9375 69.25C54.9375 67.3333 53.625 65.7917 52 64.625C50.4167 63.4583 48.6042 62.6458 46.5625 62.1875C44.5625 61.6875 42.5625 61.4375 40.5625 61.4375C40.1875 61.4375 39.8125 61.2083 39.4375 60.75C39.0625 60.25 38.75 59.6458 38.5 58.9375C38.25 58.2292 38.0625 57.4792 37.9375 56.6875C37.8125 55.8542 37.7917 55.0833 37.875 54.375C37.9583 53.6667 38.1458 53.0833 38.4375 52.625C38.7708 52.125 39.2708 51.875 39.9375 51.875C40.9375 51.875 42.1458 51.75 43.5625 51.5C44.9792 51.25 46.4583 50.8125 48 50.1875C49.5417 49.5208 51.0625 48.6458 52.5625 47.5625C54.0625 46.4792 55.4167 45.1042 56.625 43.4375C57.8333 41.7292 58.8125 39.7292 59.5625 37.4375C60.3125 35.1042 60.6875 32.3958 60.6875 29.3125C60.6875 26.8958 60.2708 24.5208 59.4375 22.1875C58.6458 19.8125 57.3542 17.7083 55.5625 15.875C53.7708 14 51.4792 12.5 48.6875 11.375C45.8958 10.2083 42.5417 9.625 38.625 9.625C33.5 9.625 29.1042 10.4167 25.4375 12C21.7708 13.5833 18.7708 15.7083 16.4375 18.375C14.1458 21.0417 12.4583 24.1458 11.375 27.6875C10.2917 31.1875 9.75 34.8958 9.75 38.8125C9.75 41.6458 9.97917 44.0417 10.4375 46C10.9375 47.9167 11.4792 49.5 12.0625 50.75C12.6458 51.9583 13.1875 52.8542 13.6875 53.4375C14.1875 54.0208 14.4792 54.3542 14.5625 54.4375C15.2708 54.2292 15.7708 54.3125 16.0625 54.6875C16.3542 55.0625 16.5 55.5625 16.5 56.1875C16.5 56.7708 16.2917 57.6458 15.875 58.8125C15.5 59.9792 14.9792 61.0833 14.3125 62.125C13.6458 63.125 12.875 63.8958 12 64.4375C11.125 64.9375 10.2292 64.8333 9.3125 64.125C8.8125 63.6667 8.04167 62.8333 7 61.625C5.95833 60.4167 4.91667 58.8125 3.875 56.8125C2.875 54.7708 1.97917 52.3333 1.1875 49.5C0.395833 46.625 0 43.3125 0 39.5625C0 33.5625 0.9375 28.1458 2.8125 23.3125C4.6875 18.4375 7.3125 14.2708 10.6875 10.8125C14.1042 7.35417 18.1667 4.6875 22.875 2.8125C27.5833 0.9375 32.7917 0 38.5 0C43.3333 0 47.7083 0.666667 51.625 2C55.5833 3.29167 58.9583 5.1875 61.75 7.6875C64.5417 10.1875 66.6875 13.25 68.1875 16.875C69.7292 20.4583 70.5 24.5208 70.5 29.0625C70.5 32.5625 70.0833 35.7292 69.25 38.5625C68.4167 41.3958 67.25 43.9375 65.75 46.1875C64.2917 48.4375 62.5417 50.4375 60.5 52.1875C58.5 53.8958 56.3333 55.375 54 56.625C55.875 57.1667 57.625 57.9792 59.25 59.0625C60.875 60.1042 62.2917 61.4375 63.5 63.0625C64.7083 64.6875 65.6667 66.6042 66.375 68.8125C67.0833 70.9792 67.4375 73.4375 67.4375 76.1875C67.4375 79.3958 66.8542 82.3542 65.6875 85.0625C64.5625 87.7708 63 90.1042 61 92.0625C59 94.0208 56.625 95.5417 53.875 96.625C51.1667 97.75 48.2292 98.3125 45.0625 98.3125C40.8542 98.3125 37.3542 97.6667 34.5625 96.375C31.7708 95.125 29.5417 93.3542 27.875 91.0625C26.2083 88.7292 25.0208 85.9583 24.3125 82.75C23.6458 79.5 23.3125 75.8958 23.3125 71.9375V25.5ZM97.6875 25.5C97.6875 24.2917 97.5833 23.4167 97.375 22.875C97.2083 22.3333 97.125 21.8333 97.125 21.375C97.125 20.75 97.4583 20.2292 98.125 19.8125C98.7917 19.3958 99.5833 19.1875 100.5 19.1875C102.625 19.1875 104.333 19.75 105.625 20.875C106.958 21.9583 107.625 23.2917 107.625 24.875V66.6875C109.083 66.5208 110.729 66.1042 112.562 65.4375C114.438 64.7708 116.354 63.8542 118.312 62.6875C120.271 61.4792 122.167 60 124 58.25C125.875 56.5 127.542 54.4583 129 52.125C130.458 49.7917 131.625 47.1667 132.5 44.25C133.417 41.2917 133.875 38.0208 133.875 34.4375C133.875 32.0208 133.479 29.5208 132.688 26.9375C131.938 24.3542 130.729 22 129.062 19.875C127.396 17.75 125.229 16 122.562 14.625C119.938 13.25 116.75 12.5625 113 12.5625C107.875 12.5625 103.479 13.3542 99.8125 14.9375C96.1458 16.5208 93.1458 18.6458 90.8125 21.3125C88.5208 23.9792 86.8333 27.0833 85.75 30.625C84.6667 34.125 84.125 37.8333 84.125 41.75C84.125 44.5833 84.3542 46.9792 84.8125 48.9375C85.3125 50.8542 85.8542 52.4375 86.4375 53.6875C87.0208 54.8958 87.5625 55.7917 88.0625 56.375C88.5625 56.9583 88.8542 57.2917 88.9375 57.375C89.6458 57.1667 90.1458 57.25 90.4375 57.625C90.7292 58 90.875 58.5 90.875 59.125C90.875 59.7083 90.6667 60.5833 90.25 61.75C89.875 62.9167 89.3542 64.0208 88.6875 65.0625C88.0208 66.0625 87.25 66.8333 86.375 67.375C85.5 67.875 84.6042 67.7708 83.6875 67.0625C83.1875 66.6042 82.4167 65.7708 81.375 64.5625C80.3333 63.3542 79.2917 61.75 78.25 59.75C77.25 57.7083 76.3542 55.2708 75.5625 52.4375C74.7708 49.5625 74.375 46.25 74.375 42.5C74.375 36.5 75.3125 31.0833 77.1875 26.25C79.0625 21.375 81.6875 17.2083 85.0625 13.75C88.4792 10.2917 92.5417 7.625 97.25 5.75C101.958 3.875 107.167 2.9375 112.875 2.9375C117.542 2.9375 121.771 3.70833 125.562 5.25C129.396 6.79167 132.646 8.95833 135.312 11.75C138.021 14.5 140.104 17.7917 141.562 21.625C143.021 25.4583 143.75 29.6458 143.75 34.1875C143.75 39.7708 142.75 44.9375 140.75 49.6875C138.75 54.3958 136.083 58.5833 132.75 62.25C129.417 65.9167 125.562 68.9583 121.188 71.375C116.854 73.7917 112.333 75.4375 107.625 76.3125V93.1875C107.625 94.2708 107.271 95.0208 106.562 95.4375C105.854 95.8958 105.021 96.125 104.062 96.125C103.312 96.125 102.562 96.0208 101.812 95.8125C101.062 95.6042 100.375 95.3333 99.75 95C99.1667 94.6667 98.6667 94.2708 98.25 93.8125C97.875 93.3958 97.6875 92.9375 97.6875 92.4375V25.5Z" fill="white"/>
</svg>
